<svg xmlns="http://www.w3.org/2000/svg" height="1024" width="1024" viewBox="0 0 29 29"><path fill="#ffffff" d="M0,0 h29v29H0z" shapeRendering="crispEdges"></path><path fill="#000000" d="M0 0h7v1H0zM8 0h1v1H8zM12 0h1v1H12zM14 0h2v1H14zM18 0h3v1H18zM22,0 h7v1H22zM0 1h1v1H0zM6 1h1v1H6zM8 1h1v1H8zM14 1h1v1H14zM16 1h1v1H16zM20 1h1v1H20zM22 1h1v1H22zM28,1 h1v1H28zM0 2h1v1H0zM2 2h3v1H2zM6 2h1v1H6zM8 2h6v1H8zM15 2h2v1H15zM18 2h3v1H18zM22 2h1v1H22zM24 2h3v1H24zM28,2 h1v1H28zM0 3h1v1H0zM2 3h3v1H2zM6 3h1v1H6zM10 3h1v1H10zM12 3h2v1H12zM17 3h4v1H17zM22 3h1v1H22zM24 3h3v1H24zM28,3 h1v1H28zM0 4h1v1H0zM2 4h3v1H2zM6 4h1v1H6zM9 4h1v1H9zM11 4h2v1H11zM14 4h3v1H14zM18 4h3v1H18zM22 4h1v1H22zM24 4h3v1H24zM28,4 h1v1H28zM0 5h1v1H0zM6 5h1v1H6zM8 5h1v1H8zM12 5h3v1H12zM17 5h1v1H17zM20 5h1v1H20zM22 5h1v1H22zM28,5 h1v1H28zM0 6h7v1H0zM8 6h1v1H8zM10 6h1v1H10zM12 6h1v1H12zM14 6h1v1H14zM16 6h1v1H16zM18 6h1v1H18zM20 6h1v1H20zM22,6 h7v1H22zM8 7h2v1H8zM12 7h1v1H12zM14 7h2v1H14zM2 8h3v1H2zM6 8h1v1H6zM8 8h2v1H8zM11 8h2v1H11zM18 8h2v1H18zM21 8h3v1H21zM26,8 h3v1H26zM2 9h2v1H2zM5 9h1v1H5zM7 9h2v1H7zM10 9h1v1H10zM13 9h1v1H13zM16 9h1v1H16zM18 9h8v1H18zM28,9 h1v1H28zM1 10h2v1H1zM5 10h4v1H5zM21 10h2v1H21zM25 10h1v1H25zM0 11h1v1H0zM7 11h2v1H7zM20 11h4v1H20zM25 11h1v1H25zM27 11h1v1H27zM0 12h2v1H0zM4 12h3v1H4zM9 12h1v1H9zM19 12h1v1H19zM21 12h1v1H21zM23 12h1v1H23zM25,12 h4v1H25zM3 13h3v1H3zM7 13h1v1H7zM9 13h1v1H9zM19 13h4v1H19zM24 13h2v1H24zM27,13 h2v1H27zM1 14h2v1H1zM4 14h1v1H4zM6 14h2v1H6zM20 14h1v1H20zM23 14h1v1H23zM0 15h3v1H0zM4 15h2v1H4zM8 15h2v1H8zM19 15h3v1H19zM24 15h2v1H24zM27,15 h2v1H27zM1 16h3v1H1zM6 16h1v1H6zM21 16h1v1H21zM25 16h2v1H25zM28,16 h1v1H28zM0 17h4v1H0zM7 17h1v1H7zM9 17h1v1H9zM19 17h7v1H19zM27,17 h2v1H27zM0 18h1v1H0zM4 18h1v1H4zM6 18h3v1H6zM22 18h1v1H22zM24 18h3v1H24zM0 19h1v1H0zM2 19h1v1H2zM5 19h1v1H5zM9 19h2v1H9zM15 19h1v1H15zM18 19h2v1H18zM22 19h3v1H22zM27 19h1v1H27zM0 20h1v1H0zM2 20h3v1H2zM6 20h2v1H6zM12 20h2v1H12zM17 20h2v1H17zM20 20h5v1H20zM26,20 h3v1H26zM8 21h2v1H8zM11 21h3v1H11zM15 21h2v1H15zM18 21h1v1H18zM20 21h1v1H20zM24 21h2v1H24zM27,21 h2v1H27zM0 22h7v1H0zM10 22h1v1H10zM13 22h2v1H13zM16 22h1v1H16zM19 22h2v1H19zM22 22h1v1H22zM24 22h1v1H24zM0 23h1v1H0zM6 23h1v1H6zM9 23h2v1H9zM13 23h3v1H13zM18 23h3v1H18zM24 23h2v1H24zM27,23 h2v1H27zM0 24h1v1H0zM2 24h3v1H2zM6 24h1v1H6zM8 24h1v1H8zM12 24h1v1H12zM14 24h1v1H14zM16 24h2v1H16zM20 24h7v1H20zM28,24 h1v1H28zM0 25h1v1H0zM2 25h3v1H2zM6 25h1v1H6zM8 25h1v1H8zM10 25h1v1H10zM16 25h2v1H16zM19 25h3v1H19zM23 25h1v1H23zM25 25h2v1H25zM0 26h1v1H0zM2 26h3v1H2zM6 26h1v1H6zM8 26h1v1H8zM10 26h2v1H10zM14 26h1v1H14zM16 26h12v1H16zM0 27h1v1H0zM6 27h1v1H6zM9 27h2v1H9zM12 27h4v1H12zM20 27h1v1H20zM22 27h1v1H22zM24 27h2v1H24zM27 27h1v1H27zM0 28h7v1H0zM9 28h5v1H9zM15 28h1v1H15zM19 28h1v1H19zM24 28h1v1H24zM26 28h1v1H26z" shapeRendering="crispEdges"></path><image href="https://dub.co/_static/logo.svg" height="7.25" width="7.25" x="10.875" y="10.875" preserveAspectRatio="none"></image></svg>